<?xml version="1.0" encoding="UTF-8" standalone="no"?>
<!-- Created with Inkscape (http://www.inkscape.org/) -->

<svg
   xmlns:dc="http://purl.org/dc/elements/1.1/"
   xmlns:cc="http://creativecommons.org/ns#"
   xmlns:rdf="http://www.w3.org/1999/02/22-rdf-syntax-ns#"
   xmlns:svg="http://www.w3.org/2000/svg"
   xmlns="http://www.w3.org/2000/svg"
   xmlns:sodipodi="http://sodipodi.sourceforge.net/DTD/sodipodi-0.dtd"
   xmlns:inkscape="http://www.inkscape.org/namespaces/inkscape"
   width="164"
   height="164"
   id="svg2"
   version="1.1"
   inkscape:version="0.48.5 r10040"
   sodipodi:docname="Nuovo documento 1">
  <defs
     id="defs4" />
  <sodipodi:namedview
     id="base"
     pagecolor="#ffffff"
     bordercolor="#666666"
     borderopacity="1.0"
     inkscape:pageopacity="0.0"
     inkscape:pageshadow="2"
     inkscape:zoom="2.8284271"
     inkscape:cx="180.29877"
     inkscape:cy="134.24157"
     inkscape:document-units="px"
     inkscape:current-layer="layer1"
     showgrid="false"
     inkscape:window-width="1366"
     inkscape:window-height="710"
     inkscape:window-x="0"
     inkscape:window-y="0"
     inkscape:window-maximized="1" />
  <metadata
     id="metadata7">
    <rdf:RDF>
      <cc:Work
         rdf:about="">
        <dc:format>image/svg+xml</dc:format>
        <dc:type
           rdf:resource="http://purl.org/dc/dcmitype/StillImage" />
        <dc:title></dc:title>
      </cc:Work>
    </rdf:RDF>
  </metadata>
  <g
     inkscape:label="Livello 1"
     inkscape:groupmode="layer"
     id="layer1"
     transform="translate(0,-888.36218)">
    <path
       style="fill:#ed1c24;fill-opacity:1;stroke:none"
       d="m 3.0033198,897.32897 0,111.15623 11.5625002,-111.15623 -11.5625002,0 z m 101.7187502,0.0312 48.25,4.875 0,-4.84375 -48.25,-0.0312 z m 48.3125,115.09373 -3.53125,34.875 3.53125,0 0,-34.875 z m -150.0312502,25.1563 0,9.6875 96.1250002,0.031 -96.1250002,-9.7189 z"
       id="path2998"
       inkscape:connector-curvature="0" />
    <path
       style="fill:#f26522;fill-opacity:1;stroke:none"
       d="m 15.50332,888.36022 -0.9375,8.96875 90.15625,0.0312 -89.21875,-9 z m 137.46875,13.875 0.0625,110.21878 10.96875,-109.09378 -11.03125,-1.125 z M 3.0033198,1008.4852 l -2.99999997,28.8125 2.99999997,0.3125 0,-29.125 z m 96.1250002,38.8438 49.875,5.0312 0.5,-5.0312 -50.375,0 z"
       id="path3831"
       inkscape:connector-curvature="0" />
  </g>
</svg>
